<svg xmlns="http://www.w3.org/2000/svg" width="29.035" height="29.028" viewBox="0 0 29.035 29.028">
  <path id="Icon_awesome-instagram" data-name="Icon awesome-instagram" d="M14.515,9.309a7.442,7.442,0,1,0,7.442,7.442A7.431,7.431,0,0,0,14.515,9.309Zm0,12.281a4.839,4.839,0,1,1,4.839-4.839,4.847,4.847,0,0,1-4.839,4.839ZM24,9a1.736,1.736,0,1,1-1.736-1.736A1.732,1.732,0,0,1,24,9Zm4.929,1.762a8.591,8.591,0,0,0-2.345-6.082A8.647,8.647,0,0,0,20.5,2.34c-2.4-.136-9.58-.136-11.977,0A8.635,8.635,0,0,0,2.442,4.678,8.619,8.619,0,0,0,.1,10.76c-.136,2.4-.136,9.58,0,11.977a8.591,8.591,0,0,0,2.345,6.082,8.658,8.658,0,0,0,6.082,2.345c2.4.136,9.58.136,11.977,0a8.591,8.591,0,0,0,6.082-2.345,8.647,8.647,0,0,0,2.345-6.082c.136-2.4.136-9.574,0-11.97Zm-3.1,14.542a4.9,4.9,0,0,1-2.759,2.759c-1.911.758-6.445.583-8.557.583s-6.652.168-8.557-.583A4.9,4.9,0,0,1,3.2,25.308c-.758-1.911-.583-6.445-.583-8.557S2.448,10.1,3.2,8.2A4.9,4.9,0,0,1,5.959,5.436c1.911-.758,6.445-.583,8.557-.583s6.652-.168,8.557.583A4.9,4.9,0,0,1,25.831,8.2c.758,1.911.583,6.445.583,8.557S26.589,23.4,25.831,25.308Z" transform="translate(0.005 -2.238)" fill="#e16753"/>
</svg>
